<?xml version="1.0" encoding="UTF-8"?>
<svg xmlns="http://www.w3.org/2000/svg" xmlns:xlink="http://www.w3.org/1999/xlink" width="62px" height="64px" viewBox="0 0 62 63" version="1.1">
<g id="surface1">
<rect x="0" y="0" width="62" height="63" style="fill:rgb(0%,0%,0%);fill-opacity:1;stroke:none;"/>
<path style=" stroke:none;fill-rule:nonzero;fill:rgb(100%,100%,99.607843%);fill-opacity:1;" d="M 20.15625 9.265625 L 27.683594 9.265625 L 34.8125 9.3125 L 35.109375 9.460938 L 35.257812 9.605469 L 35.257812 9.703125 L 35.457031 9.800781 L 35.457031 9.898438 L 35.65625 9.996094 L 36.25 10.628906 L 37.042969 11.363281 L 37.042969 11.457031 L 37.140625 11.457031 L 37.488281 11.847656 L 38.03125 12.335938 L 38.03125 12.433594 L 38.132812 12.433594 L 38.476562 12.824219 L 39.023438 13.359375 L 39.320312 13.605469 L 39.667969 13.996094 L 40.113281 14.433594 L 40.210938 14.480469 L 40.210938 14.578125 L 40.410156 14.675781 L 40.410156 14.773438 L 40.507812 14.773438 L 40.855469 15.164062 L 41.203125 15.507812 L 41.597656 15.847656 L 41.597656 15.945312 L 41.695312 15.945312 L 42.042969 16.335938 L 42.390625 16.675781 L 42.6875 16.921875 L 43.035156 17.308594 L 43.578125 17.847656 L 43.972656 18.1875 L 43.972656 18.285156 L 44.074219 18.285156 L 44.421875 18.675781 L 44.765625 19.015625 L 45.164062 19.359375 L 45.164062 19.457031 L 45.261719 19.457031 L 45.609375 19.847656 L 45.957031 20.1875 L 46.152344 20.332031 L 46.152344 20.429688 L 46.253906 20.429688 L 46.597656 20.820312 L 47.34375 21.550781 L 47.640625 21.796875 L 47.984375 22.1875 L 48.332031 22.527344 L 48.628906 22.773438 L 48.976562 23.160156 L 51.898438 26.039062 L 52.097656 26.183594 L 52.097656 26.28125 L 52.195312 26.28125 L 52.542969 26.671875 L 53.085938 27.207031 L 53.382812 27.453125 L 53.730469 27.84375 L 56.703125 30.769531 L 57.097656 31.109375 L 57 31.304688 L 35.011719 52.957031 L 34.914062 53.003906 L 20.203125 53.003906 L 20.5 52.664062 L 36.546875 36.863281 L 36.941406 36.523438 L 36.992188 36.472656 L 3.960938 36.425781 L 3.960938 25.84375 L 5.296875 25.792969 L 34.019531 25.792969 L 36.84375 25.746094 L 21.246094 10.386719 L 20.898438 10.09375 L 20.898438 9.996094 L 20.699219 9.898438 L 20.304688 9.507812 Z M 20.15625 9.265625 "/>
</g>
</svg>
